<svg width="85" height="86" viewBox="0 0 85 86" fill="none" xmlns="http://www.w3.org/2000/svg">
    <g filter="url(#filter0_d_8344_9395)">
        <circle cx="46" cy="39" r="25" fill="white" stroke="white" stroke-width="2" />
        <circle cx="46" cy="39" r="24" fill="#991E66" />
        <g clip-path="url(#clip0_8344_9395)">
            <path
                d="M43.4992 46.1631C43.3793 46.15 43.2594 46.1377 43.1397 46.1237C41.4189 45.9239 40.1223 45.0662 39.1929 43.656C38.6774 42.8738 38.3907 42.0087 38.3093 41.081C38.177 39.5742 38.5453 38.1989 39.4781 36.988C40.3092 35.9091 41.4 35.1993 42.7675 34.9792C44.2692 34.7375 45.681 34.989 46.932 35.8939C46.9487 35.906 46.9659 35.9179 46.983 35.9296C46.9885 35.9333 46.9952 35.9356 47.0174 35.9458C47.0201 35.9054 47.0243 35.8711 47.0243 35.8369C47.0249 35.6215 47.0266 35.4061 47.0234 35.1909C47.0224 35.1236 47.0381 35.0928 47.1155 35.093C48.0188 35.0953 48.9221 35.0945 49.8254 35.0947C49.8459 35.0947 49.8662 35.0984 49.8957 35.1012V45.9434C49.8578 45.9455 49.8237 45.9487 49.7896 45.9487C48.9072 45.9489 48.0249 45.9473 47.1425 45.9512C47.041 45.9516 47.0203 45.9176 47.0228 45.8275C47.0287 45.6226 47.0247 45.4174 47.0247 45.2123C47.0247 45.179 47.0247 45.146 47.0247 45.0931C46.9797 45.1228 46.9514 45.1396 46.9251 45.1593C46.2043 45.6933 45.3885 45.9922 44.4961 46.0991C44.3096 46.1215 44.1212 46.1291 43.9339 46.1449C43.9073 46.1471 43.8814 46.1568 43.855 46.1631H43.4992ZM44.1118 43.5703C44.3623 43.5329 44.6174 43.5141 44.8625 43.455C46.4293 43.0765 47.4481 41.5551 47.1588 40.011C46.9671 38.9883 46.3811 38.2391 45.4243 37.7901C44.3596 37.2903 43.1145 37.419 42.1966 38.2219C41.2173 39.0786 40.8931 40.5271 41.4166 41.7434C41.8925 42.8492 42.9333 43.5463 44.1118 43.5701V43.5703Z"
                fill="white" />
            <path
                d="M64.9307 34.592C64.9085 34.6977 64.8901 34.8043 64.8637 34.909C64.6482 35.7646 63.8284 36.4537 62.7658 36.395C61.8688 36.3454 61.0668 35.6313 60.9341 34.7426C60.7711 33.651 61.4821 32.6813 62.5879 32.4876C62.6417 32.4782 62.6966 32.4737 62.751 32.4669C62.7524 32.4558 62.7539 32.4445 62.7554 32.4335C62.5865 32.3994 62.419 32.3506 62.2483 32.3338C60.8983 32.2008 59.6899 32.56 58.6196 33.3665C57.7866 33.9942 57.1891 34.807 56.7486 35.7343C56.3409 36.5924 56.0881 37.4952 55.9928 38.436C55.9447 38.9109 55.9175 39.39 55.9156 39.8671C55.9072 41.8468 55.912 43.8265 55.912 45.8061C55.912 45.9005 55.8625 45.9477 55.7634 45.9479C54.8949 45.9479 54.0263 45.9462 53.1578 45.9501C53.0571 45.9505 53.0293 45.9239 53.0293 45.8246C53.0318 42.2893 53.0318 38.7538 53.0293 35.2185C53.0293 35.1221 53.0529 35.0907 53.1557 35.0911C54.0347 35.095 54.9137 35.095 55.7927 35.0911C55.8919 35.0907 55.915 35.1211 55.9139 35.2128C55.9091 35.5749 55.912 35.9372 55.933 36.3068C55.9476 36.273 55.9639 36.2399 55.9765 36.2055C56.272 35.3991 56.6705 34.6478 57.2272 33.9831C58.1717 32.855 59.3737 32.1524 60.8454 31.914C61.5852 31.7942 62.3249 31.7969 63.0469 32.031C63.7562 32.2607 64.3231 32.6663 64.6683 33.333C64.8051 33.5975 64.884 33.8793 64.9092 34.1756C64.9117 34.2053 64.9232 34.2344 64.9305 34.2638V34.592H64.9307Z"
                fill="white" />
            <path
                d="M38.5545 35.0994C36.5588 36.9166 34.5783 38.7198 32.59 40.5302C34.5691 42.3314 36.5427 44.1274 38.5326 45.9385C38.4834 45.9422 38.4547 45.9461 38.4263 45.9461C37.1429 45.9465 35.8593 45.9473 34.576 45.9432C34.5178 45.9432 34.4481 45.9112 34.4035 45.8722C32.9596 44.6151 31.518 43.3553 30.076 42.0959C30.043 42.0669 30.0091 42.0388 29.9597 41.997V45.9358H27.0684C27.0684 45.8927 27.0684 45.8527 27.0684 45.8129C27.0684 41.2425 27.0684 36.6718 27.0684 32.1012C27.0684 32.0091 27.1155 31.963 27.2098 31.9629C28.0782 31.9629 28.9467 31.9629 29.8151 31.9629C29.8563 31.9629 29.8977 31.9629 29.9503 31.9629V39.3006C30.0846 39.1769 30.1974 39.0739 30.3092 38.9701C31.6832 37.6939 33.0567 36.4174 34.432 35.1429C34.4613 35.1156 34.51 35.094 34.5498 35.094C35.8612 35.0916 37.1724 35.092 38.4838 35.0922C38.5001 35.0922 38.5165 35.0955 38.5545 35.0996V35.0994Z"
                fill="white" />
            <path
                d="M64.3532 45.9433C64.3168 45.9449 64.2793 45.9484 64.2418 45.9484C63.3597 45.9486 62.4775 45.947 61.5954 45.9509C61.4962 45.9513 61.4744 45.9207 61.4746 45.8292C61.4767 43.0062 61.4765 40.1832 61.4765 37.3602V37.25H64.3534V45.9433H64.3532Z"
                fill="white" />
            <path
                d="M43.3854 32.9129C43.3846 33.475 42.951 33.8924 42.3716 33.8889C41.7835 33.8855 41.3662 33.476 41.3692 32.9055C41.3721 32.3415 41.8015 31.9296 42.3846 31.9316C42.975 31.9337 43.3865 32.3372 43.3857 32.9131L43.3854 32.9129ZM43.0286 32.9547C43.0646 32.5781 42.8034 32.2765 42.4083 32.2385C42.0537 32.2045 41.7486 32.4792 41.7256 32.8739C41.7061 33.2089 41.9202 33.557 42.3516 33.5796C42.7576 33.6007 43.0169 33.3143 43.0286 32.9549V32.9547Z"
                fill="white" />
            <path
                d="M53.8574 32.9061C53.8578 32.3423 54.2791 31.931 54.8553 31.9316C55.4522 31.9323 55.867 32.3358 55.8658 32.9145C55.8645 33.4778 55.4342 33.892 54.8526 33.89C54.2626 33.8877 53.8568 33.4866 53.8574 32.9061ZM54.2074 32.8962C54.1994 33.276 54.4824 33.5769 54.8547 33.5845C55.2262 33.5921 55.5083 33.31 55.515 32.9243C55.5215 32.5409 55.2473 32.2494 54.8679 32.2365C54.5027 32.224 54.2155 32.5108 54.2074 32.8962Z"
                fill="white" />
            <path
                d="M38.2914 33.8548V31.9742H38.6127V33.2777C38.6209 33.2816 38.6292 33.2855 38.6374 33.2894C38.661 33.2605 38.6859 33.2321 38.7083 33.2022C38.9919 32.8257 39.2786 32.4514 39.5562 32.0704C39.6171 31.9869 39.6796 31.9514 39.7795 31.9631C39.8268 31.9686 39.8755 31.9641 39.93 31.9641V33.8455H39.6062V32.5449C39.5978 32.5426 39.5892 32.5406 39.5809 32.5383C39.5601 32.5634 39.5382 32.5876 39.5187 32.6134C39.2389 32.9841 38.9555 33.3524 38.6822 33.7278C38.6112 33.8254 38.5373 33.8749 38.4164 33.8556C38.3795 33.8496 38.341 33.8548 38.291 33.8548H38.2914Z"
                fill="white" />
            <path
                d="M48.4818 32.856C48.7418 32.9723 48.8418 33.1377 48.8073 33.3785C48.7709 33.6339 48.5959 33.8181 48.314 33.8444C48.0697 33.8672 47.8215 33.8491 47.5664 33.8491V31.9731C47.8584 31.9638 48.1526 31.9146 48.4423 32.0036C48.6181 32.0578 48.7231 32.1788 48.7428 32.3602C48.7617 32.5335 48.7141 32.6851 48.5662 32.7953C48.5417 32.8135 48.5166 32.831 48.4816 32.8558L48.4818 32.856ZM47.896 33.0476V33.5496C48.0157 33.5496 48.1306 33.5609 48.2422 33.5467C48.3935 33.5277 48.4818 33.4167 48.4772 33.2802C48.4728 33.1504 48.3768 33.0593 48.2204 33.0486C48.1168 33.0417 48.0122 33.0474 47.896 33.0474V33.0476ZM47.8948 32.7489C48.0015 32.7489 48.0988 32.7567 48.1945 32.7471C48.3242 32.7341 48.4077 32.6385 48.4149 32.514C48.4214 32.402 48.3487 32.296 48.2276 32.2785C48.1204 32.2629 48.0088 32.2752 47.8946 32.2752V32.7491L47.8948 32.7489Z"
                fill="white" />
            <path
                d="M43.8359 33.8496V31.9746H44.9529V32.2676H44.1712V32.6865C44.27 32.6865 44.3696 32.6859 44.4692 32.6865C44.8267 32.6891 45.0584 32.8865 45.0747 33.2285C45.0889 33.5276 44.9519 33.7897 44.553 33.8437C44.3219 33.8751 44.0827 33.8494 43.8359 33.8494V33.8496ZM44.1716 33.0046V33.5497C44.2905 33.5497 44.4023 33.5606 44.5107 33.5471C44.6574 33.5288 44.7376 33.4287 44.7415 33.2884C44.7457 33.1378 44.6764 33.033 44.5255 33.0083C44.4121 32.9899 44.2928 33.0046 44.1716 33.0046Z"
                fill="white" />
            <path
                d="M37.6924 31.9631V33.8461H37.3651V32.2681C37.1801 32.2681 37.0097 32.264 36.84 32.2731C36.8178 32.2743 36.787 32.3406 36.7812 32.3797C36.7418 32.643 36.7221 32.9098 36.6677 33.17C36.6319 33.3409 36.566 33.5111 36.4829 33.6658C36.3879 33.8426 36.1993 33.9011 36.0164 33.8447C36.0164 33.7606 36.0137 33.6757 36.0183 33.5909C36.0194 33.5706 36.0432 33.5368 36.0602 33.5345C36.1885 33.5171 36.251 33.4254 36.277 33.323C36.3371 33.0855 36.3881 32.845 36.4258 32.6032C36.4547 32.4181 36.4549 32.2288 36.4748 32.0421C36.4777 32.0138 36.5177 31.9668 36.5411 31.9664C36.921 31.9617 37.3008 31.9631 37.6924 31.9631Z"
                fill="white" />
            <path
                d="M49.3127 33.8492V31.9707H49.6459V32.5956C49.8096 32.6058 49.9598 32.604 50.1061 32.6272C50.3847 32.6715 50.5611 32.8495 50.5894 33.0931C50.6281 33.4274 50.5038 33.6695 50.2296 33.7854C50.0117 33.8775 49.7807 33.8695 49.5505 33.8621C49.4743 33.8597 49.3981 33.8541 49.3125 33.8494L49.3127 33.8492ZM49.6476 33.5483C49.7625 33.5483 49.8606 33.5571 49.9565 33.5464C50.1314 33.5269 50.2357 33.4114 50.242 33.2473C50.2486 33.0697 50.1702 32.9624 49.9893 32.9267C49.9021 32.9095 49.8098 32.9113 49.7202 32.9154C49.6951 32.9164 49.6515 32.9552 49.6507 32.9776C49.6451 33.1644 49.6476 33.3513 49.6476 33.5483Z"
                fill="white" />
            <path
                d="M32.6133 33.8466V31.9746H33.7162V32.2686H32.9544V32.7462H33.6323V33.0508H32.9544V33.5485H33.7395V33.8466H32.6133Z"
                fill="white" />
            <path
                d="M35.5908 33.4425C35.6019 33.4585 35.6105 33.4694 35.6174 33.4811C35.739 33.6868 35.7281 33.7186 35.5048 33.8105C35.0536 33.9964 34.5058 33.8477 34.2589 33.4725C34.0004 33.0796 34.0678 32.4853 34.4069 32.1706C34.6984 31.9 35.2695 31.8504 35.6057 32.0672C35.6285 32.082 35.6486 32.1007 35.6779 32.1236C35.6304 32.2016 35.5845 32.2765 35.5332 32.3604C35.3147 32.2395 35.0845 32.1866 34.8539 32.2873C34.7455 32.3349 34.6385 32.4199 34.5701 32.5148C34.3893 32.7663 34.4246 33.1528 34.6266 33.3726C34.8493 33.6148 35.1691 33.6397 35.5908 33.4425Z"
                fill="white" />
            <path
                d="M45.9289 33.8645C45.9958 33.7336 46.0482 33.6191 46.1118 33.511C46.157 33.4341 46.153 33.3746 46.1049 33.2976C45.8497 32.8902 45.6013 32.4789 45.3508 32.0688C45.3336 32.0405 45.319 32.0108 45.2949 31.966C45.427 31.966 45.5442 31.9613 45.6605 31.9695C45.6873 31.9714 45.7171 32.014 45.7348 32.044C45.9163 32.3474 46.0955 32.652 46.2752 32.9563C46.2936 32.9875 46.3131 33.0182 46.3435 33.0683C46.4081 32.9403 46.4636 32.832 46.5178 32.723C46.6325 32.4931 46.7478 32.2635 46.8598 32.0325C46.8838 31.9827 46.9131 31.9601 46.9711 31.9632C47.0576 31.9677 47.1442 31.9644 47.2484 31.9644C47.2267 32.0114 47.2126 32.0446 47.1963 32.0768C46.9121 32.6356 46.626 33.1936 46.3451 33.7541C46.3047 33.8347 46.2616 33.879 46.1645 33.8665C46.0963 33.8577 46.0258 33.8649 45.9289 33.8649V33.8645Z"
                fill="white" />
            <path
                d="M52.7776 32.2719H52.1543V31.9746H53.7281V32.2706H53.1099V33.846H52.7778V32.2719H52.7776Z"
                fill="white" />
            <path
                d="M51.0596 33.8501C50.9409 33.8682 50.872 33.8253 50.8515 33.7202C50.8329 33.6248 50.8829 33.5377 50.9698 33.5063C51.0801 33.4663 51.1908 33.5026 51.2506 33.5986C51.3494 33.7568 51.2996 34.0185 51.1458 34.1486C51.1326 34.1597 51.1188 34.1699 51.1046 34.1796C50.9702 34.2711 50.9495 34.2651 50.8781 34.111C50.9798 34.0591 51.0562 33.9869 51.0598 33.8499L51.0596 33.8501Z"
                fill="white" />
        </g>
    </g>
    <defs>
        <filter id="filter0_d_8344_9395" x="-0.9" y="0.1" width="85.8" height="85.8"
            filterUnits="userSpaceOnUse" color-interpolation-filters="sRGB">
            <feFlood flood-opacity="0" result="BackgroundImageFix" />
            <feColorMatrix in="SourceAlpha" type="matrix"
                values="0 0 0 0 0 0 0 0 0 0 0 0 0 0 0 0 0 0 127 0" result="hardAlpha" />
            <feOffset dx="-4" dy="4" />
            <feGaussianBlur stdDeviation="8.45" />
            <feComposite in2="hardAlpha" operator="out" />
            <feColorMatrix type="matrix" values="0 0 0 0 0 0 0 0 0 0 0 0 0 0 0 0 0 0 0.1 0" />
            <feBlend mode="normal" in2="BackgroundImageFix" result="effect1_dropShadow_8344_9395" />
            <feBlend mode="normal" in="SourceGraphic" in2="effect1_dropShadow_8344_9395"
                result="shape" />
        </filter>
        <clipPath id="clip0_8344_9395">
            <rect width="39" height="16" fill="white" transform="translate(27 32)" />
        </clipPath>
    </defs>
</svg>
