<svg width="85" height="86" viewBox="0 0 85 86" fill="none" xmlns="http://www.w3.org/2000/svg">
  <g filter="url(#filter0_d_8344_9376)">
    <circle cx="46" cy="39" r="26" fill="white" />
    <circle cx="46" cy="39" r="25" stroke="white" stroke-width="2" />
  </g>
  <g clip-path="url(#clip0_8344_9376)">
    <path
      d="M63.1229 37.3081C62.2423 28.6454 54.9878 21.9141 46.0559 21.9141C45.5248 21.9141 45.0076 21.9141 44.4764 21.9993C36.1596 22.6951 29.5061 29.5259 28.8911 37.8336C28.2761 47.8028 36.1596 56.1105 46.0559 56.1105C54.9039 56.1105 62.2563 49.3792 63.1229 40.7164H41.7647V37.2229H63.1229V37.3081ZM46.042 29.0005C46.2237 28.12 47.0064 27.3389 47.887 27.1685C49.5504 26.8135 50.9482 28.3046 50.6826 29.9661C50.5009 30.9318 49.7181 31.6277 48.8375 31.7981H48.4042C46.9226 31.7981 45.7764 30.4916 46.042 29.0005Z"
      fill="#FF8200" />
    <path
      d="M69.8601 36.4296C68.7279 25.3243 59.6982 16.3065 48.5858 15.1704C47.7052 15.0852 46.8385 15 45.9579 15C31.8682 15 20.5741 27.2414 22.1536 41.5988C23.2858 52.7041 32.3155 61.7219 43.4279 62.858C58.6638 64.5195 71.5235 51.6675 69.8601 36.4438V36.4296ZM66.5334 40.7183C65.7506 50.6876 57.6854 58.7396 47.7052 59.5207C47.0901 59.6059 46.573 59.6059 45.9579 59.6059C34.0488 59.6059 24.5159 49.4521 25.4664 37.2959C26.2491 27.3266 34.3144 19.2746 44.2946 18.4935C56.9865 17.4426 67.5817 28.0225 66.5334 40.7183Z"
      fill="#FF8200" />
  </g>
  <defs>
    <filter id="filter0_d_8344_9376" x="-0.9" y="0.1" width="85.8" height="85.8"
      filterUnits="userSpaceOnUse" color-interpolation-filters="sRGB">
      <feFlood flood-opacity="0" result="BackgroundImageFix" />
      <feColorMatrix in="SourceAlpha" type="matrix"
        values="0 0 0 0 0 0 0 0 0 0 0 0 0 0 0 0 0 0 127 0" result="hardAlpha" />
      <feOffset dx="-4" dy="4" />
      <feGaussianBlur stdDeviation="8.45" />
      <feComposite in2="hardAlpha" operator="out" />
      <feColorMatrix type="matrix" values="0 0 0 0 0 0 0 0 0 0 0 0 0 0 0 0 0 0 0.1 0" />
      <feBlend mode="normal" in2="BackgroundImageFix" result="effect1_dropShadow_8344_9376" />
      <feBlend mode="normal" in="SourceGraphic" in2="effect1_dropShadow_8344_9376" result="shape" />
    </filter>
    <clipPath id="clip0_8344_9376">
      <rect width="48" height="48" fill="white" transform="translate(22 15)" />
    </clipPath>
  </defs>
</svg>
