<svg width="85" height="107" viewBox="0 0 85 107" fill="none" xmlns="http://www.w3.org/2000/svg">
    <g filter="url(#filter0_d_8344_9390)">
        <path
            d="M72 39.9091C72 52.3106 53.8952 76.806 47.9014 84.5757C46.9279 85.8375 45.0721 85.8375 44.0986 84.5757C38.1048 76.806 20 52.3106 20 39.9091C20 25.0476 31.6406 13 46 13C60.3594 13 72 25.0476 72 39.9091Z"
            fill="white" />
        <circle cx="46" cy="39" r="24" fill="#E40422" />
        <path
            d="M40.0741 24.4004L37.639 29.4575L35.204 24.4004H32.5469V32.0445H34.4092V26.5744L36.7897 31.1951H38.4884L40.8689 26.5744V32.0445H42.7351V24.4004H40.0741Z"
            fill="white" />
        <path
            d="M52.0684 24.4004V25.9237H55.3956L55.3878 32.0445H57.2501L57.2579 25.9237H60.589V24.4004H52.0684Z"
            fill="white" />
        <path
            d="M58.7248 49.8847C58.678 50.1886 58.5572 50.4418 58.3585 50.6288C58.1715 50.808 57.9222 50.9327 57.6105 51.0067C57.3027 51.0769 56.8547 51.1197 56.3754 51.1197C55.8962 51.1197 55.4443 51.0574 55.0742 50.9288C54.7157 50.808 54.4313 50.5938 54.2326 50.2938C54.03 49.9938 53.9287 49.5574 53.9287 49.0042V48.2211C53.9287 47.6639 54.03 47.2315 54.2326 46.9315C54.4313 46.6315 54.7157 46.4211 55.0742 46.2964C55.4443 46.1717 55.8806 46.1055 56.3754 46.1055C56.8702 46.1055 57.3027 46.1484 57.6105 46.2185C57.9222 46.2886 58.1715 46.4172 58.3585 46.5964C58.5533 46.7873 58.678 47.0367 58.7248 47.3406H60.591C60.5403 46.7094 60.3261 46.1717 59.952 45.7432C59.6092 45.3497 59.1378 45.0614 58.5494 44.886C57.9767 44.7146 57.2287 44.625 56.3793 44.625C55.4871 44.625 54.7118 44.7536 54.0729 45.0068C53.4261 45.264 52.9274 45.6925 52.5807 46.2808C52.2495 46.8458 52.0781 47.5977 52.0664 48.5211V48.6068L52.1677 48.6107L52.0664 48.6146V48.7003C52.0781 49.6236 52.2495 50.3756 52.5807 50.9405C52.9235 51.5288 53.4261 51.9574 54.0729 52.2145C54.7079 52.4678 55.4833 52.5963 56.3793 52.5963C57.2715 52.5963 57.9806 52.5067 58.5494 52.3353C59.1378 52.16 59.6092 51.8717 59.952 51.4782C60.3261 51.0496 60.5403 50.5119 60.591 49.8808L58.7248 49.8847Z"
            fill="white" />
    </g>
    <defs>
        <filter id="filter0_d_8344_9390" x="-0.9" y="0.1" width="85.8" height="107.8"
            filterUnits="userSpaceOnUse" color-interpolation-filters="sRGB">
            <feFlood flood-opacity="0" result="BackgroundImageFix" />
            <feColorMatrix in="SourceAlpha" type="matrix"
                values="0 0 0 0 0 0 0 0 0 0 0 0 0 0 0 0 0 0 127 0" result="hardAlpha" />
            <feOffset dx="-4" dy="4" />
            <feGaussianBlur stdDeviation="8.45" />
            <feComposite in2="hardAlpha" operator="out" />
            <feColorMatrix type="matrix" values="0 0 0 0 0 0 0 0 0 0 0 0 0 0 0 0 0 0 0.1 0" />
            <feBlend mode="normal" in2="BackgroundImageFix" result="effect1_dropShadow_8344_9390" />
            <feBlend mode="normal" in="SourceGraphic" in2="effect1_dropShadow_8344_9390"
                result="shape" />
        </filter>
    </defs>
</svg>
