<svg width="86" height="108" viewBox="0 0 86 108" fill="none" xmlns="http://www.w3.org/2000/svg">
<g clip-path="url(#clip0_1239_72)">
<g filter="url(#filter0_d_1239_72)">
<path d="M72 40.2727C72 43.2093 70.9334 46.9656 69.1597 51.1441C67.3954 55.3006 64.9726 59.7817 62.3498 64.1389C57.105 72.8519 51.1075 80.9928 48.1149 84.925C47.5418 85.6781 46.4582 85.6781 45.8851 84.925C42.8925 80.9928 36.895 72.8519 31.6502 64.1389C29.0274 59.7817 26.6046 55.3006 24.8403 51.1441C23.0666 46.9656 22 43.2093 22 40.2727C22 25.7171 33.2374 14 47 14C60.7626 14 72 25.7171 72 40.2727Z" fill="#EE2F53" stroke="white" stroke-width="2"/>
</g>
<path d="M48.2358 23.3007C49.3482 24.0556 50.4107 25.5463 50.8169 26.909C51.3482 28.6812 51.0357 30.9204 49.9669 32.9804C48.1233 36.5568 44.5734 40.1395 41.5797 41.4382C40.6798 41.8349 40.3485 41.8988 39.2986 41.9052C38.1674 41.9052 37.7424 41.7965 37.0049 41.2975C36.2549 40.792 35.8112 40.1395 35.5737 39.199C35.3675 38.3609 35.4612 37.5356 35.8549 36.7743L36.0737 36.3584L35.7862 36.4032C34.6487 36.5759 33.4113 37.2797 32.5676 38.2266C31.8676 39.0135 31.5238 39.7236 31.3551 40.7537C31.1801 41.8157 31.3676 42.7114 31.9551 43.6134C32.4988 44.4451 33.03 44.9378 33.83 45.3408C34.5112 45.6863 34.9362 45.7823 35.8924 45.8206C37.3549 45.8782 38.5611 45.6031 40.0985 44.861C40.8048 44.5155 42.061 43.7862 42.6422 43.3831L42.9234 43.1912L42.8047 43.3767C41.8047 44.9314 41.0485 46.6907 40.7298 48.2134C40.5548 49.0387 40.5673 50.6253 40.7548 51.3035C41.261 53.1268 42.5922 54.3936 44.2297 54.6175C45.7171 54.8222 47.2858 54.0353 48.2608 52.5894C48.5357 52.18 49.142 51.0028 49.142 50.8684C49.142 50.8492 48.9045 50.8301 48.6232 50.8301C47.967 50.8301 47.2295 50.6445 46.7796 50.363C46.3171 50.0815 45.6359 49.365 45.4046 48.9235C45.0296 48.2006 44.8796 47.612 44.8421 46.7355C44.7984 45.4112 45.0484 44.3236 45.7358 42.8649C46.7546 40.7089 47.8795 39.4037 49.8732 38.073C51.1732 37.2029 52.8356 36.48 53.9543 36.3008C54.5293 36.2113 55.5418 36.2561 56.048 36.3968C56.7292 36.5887 57.1979 36.8702 57.7229 37.4013C58.4042 38.0922 58.5916 38.5273 58.6291 39.4421C58.6479 40.0051 58.6354 40.1779 58.5167 40.5297C58.4417 40.7601 58.3167 41.0543 58.2292 41.1823C58.0417 41.4766 58.0854 41.4894 58.7541 41.2975C59.2791 41.1503 59.9291 40.8304 60.5166 40.4338C61.3228 39.8836 62.0978 38.8663 62.4415 37.8939C62.5853 37.4844 62.604 37.3245 62.6103 36.6271C62.6103 35.917 62.5915 35.7762 62.4415 35.3604C62.079 34.3304 61.4353 33.5562 60.5166 33.0252C59.2479 32.2959 57.9104 32.1743 56.1605 32.6286C55.0105 32.9293 53.4293 33.6458 52.0856 34.4839C51.7606 34.6822 51.4919 34.8294 51.4794 34.823C51.4731 34.8102 51.5606 34.6758 51.6794 34.5223C52.0231 34.068 52.7419 32.5262 53.0418 31.5857C53.6606 29.628 53.7731 28.2781 53.4231 26.8706C52.8418 24.5291 50.8482 23 48.3733 23H47.7983L48.2358 23.3007Z" fill="white"/>
<path d="M44.0824 23.3328C43.1576 23.4223 42.4178 23.8254 41.6903 24.6315C41.2033 25.1689 40.8272 25.8599 40.6299 26.5828C40.4388 27.2673 40.3895 28.79 40.5313 29.7305C40.7841 31.3811 41.4314 33.1724 42.35 34.7591L42.6521 35.2837L42.1836 34.9318C40.7224 33.8442 38.8914 32.8845 37.6707 32.5711C35.0135 31.8929 32.6769 32.9165 31.5672 35.2453C31.2096 35.9938 31.0863 36.4865 31.037 37.3309L31 37.9387L31.1911 37.5997C31.672 36.7616 32.8002 35.8083 33.7866 35.418C34.7607 35.0278 35.9506 34.9062 37.085 35.0918C38.7557 35.3541 40.8334 36.3905 42.4672 37.766C42.7877 38.0411 43.1145 38.3098 43.1946 38.3738L43.3426 38.4889L45.6669 36.5632L45.4018 36.0258C45.0935 35.418 44.7544 34.4072 44.5941 33.6203C44.5078 33.2044 44.4832 32.8078 44.4893 31.9569C44.4955 30.6581 44.588 30.1783 45.0134 29.2698C45.3586 28.5533 46.1231 27.7344 46.7581 27.4209C47.2883 27.1586 47.9418 27.0114 48.4473 27.0434C48.657 27.0562 48.8296 27.0498 48.8296 27.0242C48.8296 26.9986 48.7494 26.7747 48.6508 26.5188C48.1637 25.2905 47.3314 24.3052 46.3019 23.7422C45.5929 23.3583 44.9825 23.2432 44.0824 23.3328Z" fill="white"/>
<path d="M49.9432 40.0947C49.5756 40.3826 49.0977 40.7985 48.8772 41.0096L48.479 41.4062L48.9507 42.0716C49.937 43.4599 50.9111 45.9166 51.2052 47.7592C51.3277 48.5141 51.2971 49.7937 51.1501 50.4974C50.9111 51.5978 50.372 52.743 49.6859 53.6131C49.3367 54.0545 48.6015 54.7263 48.3013 54.8862C48.1114 54.9822 48.1114 54.9886 48.2584 54.995C49.9064 55.059 51.3461 54.5088 52.406 53.4084C52.8348 52.9669 52.9574 52.7878 53.2147 52.2248C53.668 51.2587 53.7906 50.6126 53.7538 49.4226C53.7171 48.367 53.6252 47.8551 53.2698 46.7675C52.9941 45.9294 52.3999 44.4708 52.1058 43.9333C52.0078 43.7542 51.9404 43.6007 51.9649 43.6007C51.9833 43.6007 52.0936 43.671 52.1977 43.7542C52.7736 44.2021 54.4645 45.0657 55.4263 45.4112C56.9334 45.9486 58.5753 45.9678 59.77 45.4688C60.6951 45.0849 61.6324 44.2596 62.2267 43.3064C62.5636 42.769 62.8945 41.7837 62.9312 41.2143C63.017 39.986 63.017 39.826 62.9618 39.826C62.9251 39.826 62.9006 39.8644 62.9006 39.9156C62.9006 40.0819 62.3002 40.952 61.8836 41.3871C61.1239 42.1804 60.2417 42.7242 59.2247 43.0249C58.5814 43.2168 57.3133 43.268 56.5536 43.1272C54.7524 42.801 52.7675 41.6814 51.193 40.1011C50.905 39.8068 50.6538 39.5701 50.6416 39.5701C50.6293 39.5701 50.3169 39.8068 49.9432 40.0947Z" fill="white"/>
</g>
<defs>
<filter id="filter0_d_1239_72" x="0.1" y="0.1" width="85.8" height="107.29" filterUnits="userSpaceOnUse" color-interpolation-filters="sRGB">
<feFlood flood-opacity="0" result="BackgroundImageFix"/>
<feColorMatrix in="SourceAlpha" type="matrix" values="0 0 0 0 0 0 0 0 0 0 0 0 0 0 0 0 0 0 127 0" result="hardAlpha"/>
<feOffset dx="-4" dy="4"/>
<feGaussianBlur stdDeviation="8.45"/>
<feComposite in2="hardAlpha" operator="out"/>
<feColorMatrix type="matrix" values="0 0 0 0 0 0 0 0 0 0 0 0 0 0 0 0 0 0 0.1 0"/>
<feBlend mode="normal" in2="BackgroundImageFix" result="effect1_dropShadow_1239_72"/>
<feBlend mode="normal" in="SourceGraphic" in2="effect1_dropShadow_1239_72" result="shape"/>
</filter>
<clipPath id="clip0_1239_72">
<rect width="86" height="108" fill="white"/>
</clipPath>
</defs>
</svg>
