<svg width="86" height="107" viewBox="0 0 86 107" fill="none" xmlns="http://www.w3.org/2000/svg">
    <g filter="url(#filter0_d_8344_9409)">
        <path
            d="M72.3945 39.9091C72.3945 52.3106 54.2897 76.806 48.2959 84.5757C47.3224 85.8375 45.4666 85.8375 44.4932 84.5757C38.4994 76.806 20.3945 52.3106 20.3945 39.9091C20.3945 25.0476 32.0351 13 46.3945 13C60.7539 13 72.3945 25.0476 72.3945 39.9091Z"
            fill="white" />
        <circle cx="46" cy="39" r="24" fill="#0055A5" />
        <path d="M37.5242 30.6445V37.4375H36.3615V31.6221H34.3834V37.4375H33.2207V30.6445H37.5242Z"
            fill="white" />
        <path
            d="M39.6234 37.1684C39.2751 36.8569 39.0218 36.4579 38.8914 36.0153C38.7005 35.3941 38.6097 34.7478 38.6222 34.0995C38.6099 33.4332 38.7007 32.7688 38.8914 32.1287C39.0195 31.6715 39.2725 31.2567 39.6234 30.9284C39.9303 30.6721 40.3213 30.5312 40.7256 30.5312C41.1298 30.5312 41.5208 30.6721 41.8277 30.9284C42.1805 31.2538 42.4331 31.6686 42.557 32.1261C42.748 32.767 42.8388 33.4323 42.8262 34.0995C42.8387 34.7487 42.7479 35.3958 42.557 36.0179C42.4299 36.4607 42.1782 36.8601 41.8304 37.171C41.5174 37.4167 41.1275 37.5507 40.7256 37.5507C40.3236 37.5507 39.9337 37.4167 39.6208 37.171L39.6234 37.1684ZM39.9087 35.4492C39.9542 35.7454 40.0663 36.0282 40.2371 36.2773C40.2908 36.3558 40.3631 36.4205 40.4479 36.4661C40.5326 36.5117 40.6274 36.5368 40.7242 36.5394C41.0122 36.5394 41.2383 36.335 41.4051 35.9262C41.5982 35.3337 41.6821 34.7126 41.6527 34.0917C41.6601 33.6193 41.6223 33.1472 41.5397 32.6817C41.4963 32.3756 41.3852 32.0823 41.214 31.8221C41.166 31.7368 41.0953 31.6657 41.0094 31.6162C40.9235 31.5666 40.8254 31.5405 40.7256 31.5405C40.6257 31.5405 40.5276 31.5666 40.4417 31.6162C40.3558 31.6657 40.2851 31.7368 40.2371 31.8221C40.068 32.0826 39.9562 32.3744 39.9087 32.6791C39.8251 33.1437 39.7864 33.6148 39.793 34.0864C39.7856 34.5433 39.8244 34.9997 39.9087 35.4492Z"
            fill="white" />
        <path
            d="M46.6672 30.6445V33.2495H46.0509C45.8275 33.2615 45.6044 33.222 45.3996 33.1342C45.238 33.0507 45.1142 32.9115 45.0524 32.7437C44.9702 32.5104 44.9328 32.2643 44.9421 32.0178V30.6445H43.7794V32.0126C43.7456 32.6027 43.9267 33.1855 44.2908 33.6584C44.4819 33.8651 44.7189 34.0269 44.9838 34.1313C45.2486 34.2357 45.5344 34.2801 45.8195 34.2611H46.6672V37.4375H47.8299V30.6445H46.6672Z"
            fill="white" />
        <path d="M52.9288 31.6221H51.5643V37.4375H50.4016V31.6221H49.0371V30.6445H52.9288V31.6221Z"
            fill="white" />
        <path
            d="M55.2716 30.6434H56.2027C56.5864 30.6232 56.9678 30.7144 57.2981 30.9054C57.5865 31.0931 57.8106 31.3605 57.9415 31.6733C58.1015 32.0614 58.2021 32.4702 58.2402 32.8867L58.7785 37.4232H57.6159L57.2391 34.2547H55.2661V37.4363H54.1035V30.6434H55.2716ZM55.2716 33.2903H57.1287L57.0803 32.8998C57.0587 32.6489 57.0053 32.4015 56.9213 32.1634C56.8625 32.0032 56.7471 31.8685 56.5957 31.7834C56.4005 31.6923 56.1847 31.6508 55.9686 31.6628H55.2716V33.2903Z"
            fill="white" />
        <path
            d="M34.5018 40.5632C34.8894 40.5532 35.2721 40.6504 35.6053 40.8436C35.9319 41.0461 36.1866 41.3417 36.3346 41.6901C36.5237 42.1341 36.6154 42.6117 36.6038 43.0922C36.6157 43.5467 36.5324 43.9988 36.3589 44.4209C36.2303 44.7451 36.0224 45.0339 35.7533 45.2622C35.5713 45.4291 35.3353 45.5292 35.0858 45.5452C34.9566 45.554 34.827 45.5351 34.7061 45.4898C34.5851 45.4446 34.4759 45.374 34.3861 45.2831V47.3561H33.2207V40.5632H34.5018ZM34.4507 44.0802C34.4793 44.2016 34.5385 44.3142 34.6229 44.4078C34.6504 44.4407 34.6848 44.4676 34.7238 44.4866C34.7627 44.5055 34.8054 44.5162 34.849 44.5179C34.9511 44.5123 35.0473 44.4693 35.1181 44.3973C35.2268 44.2873 35.3047 44.1519 35.3442 44.0042C35.4096 43.7784 35.4395 43.5442 35.433 43.3097C35.433 42.6755 35.355 42.2274 35.1935 41.9653C35.1274 41.8442 35.0278 41.7435 34.9061 41.6745C34.7844 41.6055 34.6453 41.571 34.5045 41.5748H34.3861V43.5561C34.3825 43.7329 34.4042 43.9093 34.4507 44.0802Z"
            fill="white" />
        <path
            d="M37.8871 47.0837C37.5373 46.7724 37.2838 46.3721 37.1551 45.928C36.964 45.3068 36.8732 44.6606 36.8859 44.0122C36.8736 43.3468 36.9643 42.6832 37.1551 42.0441C37.2821 41.5872 37.5353 41.173 37.8871 40.8464C38.194 40.5901 38.585 40.4492 38.9892 40.4492C39.3935 40.4492 39.7845 40.5901 40.0914 40.8464C40.4427 41.1719 40.695 41.5854 40.8207 42.0415C41.0115 42.6824 41.1022 43.3476 41.0899 44.0149C41.1071 44.6634 41.0209 45.3105 40.8342 45.9332C40.7078 46.3763 40.456 46.7759 40.1075 47.0863C39.7954 47.3339 39.4052 47.469 39.0027 47.469C38.6002 47.469 38.21 47.3339 37.8979 47.0863L37.8871 47.0837ZM38.1751 45.3672C38.2223 45.656 38.3334 45.9314 38.5008 46.1744C38.554 46.2521 38.6254 46.3164 38.7092 46.3619C38.793 46.4075 38.8866 46.433 38.9825 46.4364C39.2696 46.4364 39.4957 46.232 39.6608 45.8232C39.8565 45.2312 39.9413 44.6098 39.911 43.9887C39.9184 43.5163 39.8805 43.0443 39.798 42.5787C39.7533 42.2746 39.6423 41.9832 39.4723 41.7244C39.4243 41.6391 39.3537 41.568 39.2677 41.5184C39.1818 41.4689 39.0837 41.4427 38.9839 41.4427C38.884 41.4427 38.786 41.4689 38.7 41.5184C38.6141 41.568 38.5434 41.6391 38.4954 41.7244C38.326 41.9926 38.2168 42.2927 38.1751 42.6049C38.0918 43.0695 38.053 43.5407 38.0594 44.0122C38.0526 44.4665 38.0914 44.9203 38.1751 45.3672Z"
            fill="white" />
        <path
            d="M41.8853 42.0971C42.1691 41.5853 42.6158 41.1769 43.1584 40.9335C43.7935 40.665 44.4822 40.5378 45.1742 40.5614V41.5808C44.3453 41.5808 43.7128 41.7826 43.2741 42.1914C42.8354 42.6003 42.6147 43.2057 42.6147 44.026C42.6147 44.8462 42.8327 45.3887 43.2714 45.7713C43.7101 46.154 44.3479 46.3479 45.1742 46.3479V47.3543C43.9846 47.3543 43.0668 47.0747 42.4209 46.5156C41.775 45.9565 41.452 45.1223 41.452 44.0128C41.4265 43.3487 41.5756 42.6893 41.8853 42.0971Z"
            fill="white" />
        <path
            d="M45.7978 42.0988C46.0817 41.5862 46.5296 41.1777 47.0735 40.9352C47.7044 40.6643 48.3893 40.5336 49.0785 40.5526V41.5721C48.2523 41.5721 47.6198 41.7739 47.1784 42.1827C46.737 42.5915 46.519 43.2074 46.519 44.0146C46.519 44.8218 46.737 45.3774 47.1757 45.76C47.6144 46.1426 48.2523 46.3365 49.0759 46.3365V47.356C47.8863 47.356 46.9685 47.0765 46.3226 46.5174C45.6766 45.9583 45.3537 45.124 45.3537 44.0146C45.3314 43.3496 45.4843 42.6901 45.7978 42.0988Z"
            fill="white" />
        <path
            d="M50.7865 40.5622V42.9863L52.7619 41.3641L53.9246 40.4102V47.3551H52.7619V42.7321L50.7865 44.3543V47.3551H49.6211V40.5622H50.7865Z"
            fill="white" />
        <path
            d="M55.6355 40.5608V42.985L57.6109 41.3628L58.7681 40.4141V47.3537H57.6055V42.7308L55.63 44.353V47.3537H54.4727V40.5608H55.6355Z"
            fill="white" />
    </g>
    <defs>
        <filter id="filter0_d_8344_9409" x="-0.9" y="0.1" width="86.1945" height="107.8"
            filterUnits="userSpaceOnUse" color-interpolation-filters="sRGB">
            <feFlood flood-opacity="0" result="BackgroundImageFix" />
            <feColorMatrix in="SourceAlpha" type="matrix"
                values="0 0 0 0 0 0 0 0 0 0 0 0 0 0 0 0 0 0 127 0" result="hardAlpha" />
            <feOffset dx="-4" dy="4" />
            <feGaussianBlur stdDeviation="8.45" />
            <feComposite in2="hardAlpha" operator="out" />
            <feColorMatrix type="matrix" values="0 0 0 0 0 0 0 0 0 0 0 0 0 0 0 0 0 0 0.1 0" />
            <feBlend mode="normal" in2="BackgroundImageFix" result="effect1_dropShadow_8344_9409" />
            <feBlend mode="normal" in="SourceGraphic" in2="effect1_dropShadow_8344_9409"
                result="shape" />
        </filter>
    </defs>
</svg>
