<svg width="50" height="50" viewBox="0 0 50 50" fill="none" xmlns="http://www.w3.org/2000/svg">
<path d="M25 50C38.8071 50 50 38.8071 50 25C50 11.1929 38.8071 0 25 0C11.1929 0 0 11.1929 0 25C0 38.8071 11.1929 50 25 50Z" fill="#EE2F53"/>
<path d="M26.2358 9.30069C27.3482 10.0556 28.4107 11.5463 28.8169 12.909C29.3482 14.6812 29.0357 16.9204 27.9669 18.9804C26.1233 22.5568 22.5734 26.1395 19.5797 27.4382C18.6798 27.8349 18.3485 27.8988 17.2986 27.9052C16.1674 27.9052 15.7424 27.7965 15.0049 27.2975C14.2549 26.792 13.8112 26.1395 13.5737 25.199C13.3675 24.3609 13.4612 23.5356 13.8549 22.7743L14.0737 22.3584L13.7862 22.4032C12.6487 22.5759 11.4113 23.2797 10.5676 24.2266C9.86759 25.0135 9.52385 25.7236 9.3551 26.7537C9.18011 27.8157 9.3676 28.7114 9.95508 29.6134C10.4988 30.4451 11.03 30.9378 11.83 31.3408C12.5112 31.6863 12.9362 31.7823 13.8924 31.8206C15.3549 31.8782 16.5611 31.6031 18.0985 30.861C18.8048 30.5155 20.061 29.7862 20.6422 29.3831L20.9234 29.1912L20.8047 29.3767C19.8047 30.9314 19.0485 32.6907 18.7298 34.2134C18.5548 35.0387 18.5673 36.6253 18.7548 37.3035C19.261 39.1268 20.5922 40.3936 22.2297 40.6175C23.7171 40.8222 25.2858 40.0353 26.2608 38.5894C26.5357 38.18 27.142 37.0028 27.142 36.8684C27.142 36.8492 26.9045 36.8301 26.6232 36.8301C25.967 36.8301 25.2295 36.6445 24.7796 36.363C24.3171 36.0815 23.6359 35.365 23.4046 34.9235C23.0296 34.2006 22.8796 33.612 22.8421 32.7355C22.7984 31.4112 23.0484 30.3236 23.7358 28.8649C24.7546 26.7089 25.8795 25.4037 27.8732 24.073C29.1732 23.2029 30.8356 22.48 31.9543 22.3008C32.5293 22.2113 33.5418 22.2561 34.048 22.3968C34.7292 22.5887 35.1979 22.8702 35.7229 23.4013C36.4042 24.0922 36.5916 24.5273 36.6291 25.4421C36.6479 26.0051 36.6354 26.1779 36.5167 26.5297C36.4417 26.7601 36.3167 27.0543 36.2292 27.1823C36.0417 27.4766 36.0854 27.4894 36.7541 27.2975C37.2791 27.1503 37.9291 26.8304 38.5166 26.4338C39.3228 25.8836 40.0978 24.8663 40.4415 23.8939C40.5853 23.4844 40.604 23.3245 40.6103 22.6271C40.6103 21.917 40.5915 21.7762 40.4415 21.3604C40.079 20.3304 39.4353 19.5562 38.5166 19.0252C37.2479 18.2959 35.9104 18.1743 34.1605 18.6286C33.0105 18.9293 31.4293 19.6458 30.0856 20.4839C29.7606 20.6822 29.4919 20.8294 29.4794 20.823C29.4731 20.8102 29.5606 20.6758 29.6794 20.5223C30.0231 20.068 30.7419 18.5262 31.0418 17.5857C31.6606 15.628 31.7731 14.2781 31.4231 12.8706C30.8418 10.5291 28.8482 9 26.3733 9H25.7983L26.2358 9.30069Z" fill="white"/>
<path d="M22.0824 9.33275C21.1576 9.42232 20.4178 9.82538 19.6903 10.6315C19.2033 11.1689 18.8272 11.8599 18.6299 12.5828C18.4388 13.2673 18.3895 14.79 18.5313 15.7305C18.7841 17.3811 19.4314 19.1724 20.35 20.7591L20.6521 21.2837L20.1836 20.9318C18.7224 19.8442 16.8914 18.8845 15.6707 18.5711C13.0135 17.8929 10.6769 18.9165 9.56719 21.2453C9.20961 21.9938 9.08631 22.4865 9.03699 23.3309L9 23.9387L9.19112 23.5997C9.672 22.7616 10.8002 21.8083 11.7866 21.418C12.7607 21.0278 13.9506 20.9062 15.085 21.0918C16.7557 21.3541 18.8334 22.3905 20.4672 23.766C20.7877 24.0411 21.1145 24.3098 21.1946 24.3738L21.3426 24.4889L23.6669 22.5632L23.4018 22.0258C23.0935 21.418 22.7544 20.4072 22.5941 19.6203C22.5078 19.2044 22.4832 18.8078 22.4893 17.9569C22.4955 16.6581 22.588 16.1783 23.0134 15.2698C23.3586 14.5533 24.1231 13.7344 24.7581 13.4209C25.2883 13.1586 25.9418 13.0114 26.4473 13.0434C26.657 13.0562 26.8296 13.0498 26.8296 13.0242C26.8296 12.9986 26.7494 12.7747 26.6508 12.5188C26.1637 11.2905 25.3314 10.3052 24.3019 9.74221C23.5929 9.35834 22.9825 9.24319 22.0824 9.33275Z" fill="white"/>
<path d="M27.9432 26.0947C27.5756 26.3826 27.0977 26.7985 26.8772 27.0096L26.479 27.4062L26.9507 28.0716C27.937 29.4599 28.9111 31.9166 29.2052 33.7592C29.3277 34.5141 29.2971 35.7937 29.1501 36.4974C28.9111 37.5978 28.372 38.743 27.6859 39.6131C27.3367 40.0545 26.6015 40.7263 26.3013 40.8862C26.1114 40.9822 26.1114 40.9886 26.2584 40.995C27.9064 41.059 29.3461 40.5088 30.406 39.4084C30.8348 38.9669 30.9574 38.7878 31.2147 38.2248C31.668 37.2587 31.7906 36.6126 31.7538 35.4226C31.7171 34.367 31.6252 33.8551 31.2698 32.7675C30.9941 31.9294 30.3999 30.4708 30.1058 29.9333C30.0078 29.7542 29.9404 29.6007 29.9649 29.6007C29.9833 29.6007 30.0936 29.671 30.1977 29.7542C30.7736 30.2021 32.4645 31.0657 33.4263 31.4112C34.9334 31.9486 36.5753 31.9678 37.77 31.4688C38.6951 31.0849 39.6324 30.2596 40.2267 29.3064C40.5636 28.769 40.8945 27.7837 40.9312 27.2143C41.017 25.986 41.017 25.826 40.9618 25.826C40.9251 25.826 40.9006 25.8644 40.9006 25.9156C40.9006 26.0819 40.3002 26.952 39.8836 27.3871C39.1239 28.1804 38.2417 28.7242 37.2247 29.0249C36.5814 29.2168 35.3133 29.268 34.5536 29.1272C32.7524 28.801 30.7675 27.6814 29.193 26.1011C28.905 25.8068 28.6538 25.5701 28.6416 25.5701C28.6293 25.5701 28.3169 25.8068 27.9432 26.0947Z" fill="white"/>
</svg>
