<svg width="84" height="106" viewBox="0 0 84 106" fill="none" xmlns="http://www.w3.org/2000/svg">
  <g filter="url(#filter0_d_0_1)">
    <path
      d="M71 39.4727C71 51.6121 53.765 75.5308 47.9155 83.2992C46.9431 84.5906 45.0569 84.5906 44.0845 83.2992C38.235 75.5308 21 51.6121 21 39.4727C21 24.8522 32.1929 13 46 13C59.8071 13 71 24.8522 71 39.4727Z"
      fill="white" />
    <path
      d="M69 39.4727C69 42.1047 68.0471 45.5798 66.3713 49.576C64.7134 53.5293 62.4265 57.8121 59.9327 62.0022C54.9465 70.38 49.2246 78.2358 46.3178 82.0961C46.2206 82.2252 46.1053 82.2677 46 82.2677C45.8948 82.2677 45.7794 82.2252 45.6822 82.0961C42.7754 78.2358 37.0535 70.38 32.0673 62.0022C29.5735 57.8121 27.2866 53.5293 25.6287 49.576C23.9529 45.5798 23 42.1047 23 39.4727C23 25.8474 33.4038 15 46 15C58.5962 15 69 25.8474 69 39.4727Z"
      stroke="#FF6F00" stroke-width="4" />
  </g>
  <ellipse cx="46.0009" cy="38.1996" rx="5.55556" ry="5.6" fill="#FF6F00" />
  <defs>
    <filter id="filter0_d_0_1" x="0.1" y="0.1" width="83.8" height="105.068"
      filterUnits="userSpaceOnUse" color-interpolation-filters="sRGB">
      <feFlood flood-opacity="0" result="BackgroundImageFix" />
      <feColorMatrix in="SourceAlpha" type="matrix"
        values="0 0 0 0 0 0 0 0 0 0 0 0 0 0 0 0 0 0 127 0" result="hardAlpha" />
      <feOffset dx="-4" dy="4" />
      <feGaussianBlur stdDeviation="8.45" />
      <feComposite in2="hardAlpha" operator="out" />
      <feColorMatrix type="matrix" values="0 0 0 0 0 0 0 0 0 0 0 0 0 0 0 0 0 0 0.1 0" />
      <feBlend mode="normal" in2="BackgroundImageFix" result="effect1_dropShadow_0_1" />
      <feBlend mode="normal" in="SourceGraphic" in2="effect1_dropShadow_0_1" result="shape" />
    </filter>
  </defs>
</svg>
