<svg width="86" height="107" viewBox="0 0 86 107" fill="none" xmlns="http://www.w3.org/2000/svg">
  <g filter="url(#filter0_d_8256_14224)">
    <path
      d="M73 40.122C73 52.5234 54.8952 77.0189 48.9014 84.7886C47.9279 86.0504 46.0721 86.0504 45.0986 84.7886C39.1048 77.0189 21 52.5234 21 40.122C21 25.2605 32.6406 13.2129 47 13.2129C61.3594 13.2129 73 25.2605 73 40.122Z"
      fill="white" />
    <mask id="mask0_8256_14224" style="mask-type:alpha" maskUnits="userSpaceOnUse" x="23" y="15"
      width="48" height="48">
      <circle cx="47" cy="39" r="24" fill="#D9D9D9" />
    </mask>
    <g mask="url(#mask0_8256_14224)">
      <rect x="19" y="35" width="55" height="9" fill="#242424" />
      <rect x="19" y="44" width="55" height="10" fill="#FFDA1D" />
      <rect x="19" y="54" width="55" height="9" fill="#242424" />
      <rect x="19" y="25" width="55" height="10" fill="#FFDA1D" />
      <rect x="19" y="15" width="55" height="10" fill="#242424" />
    </g>
  </g>
  <defs>
    <filter id="filter0_d_8256_14224" x="0.1" y="0.1" width="85.8" height="108.8"
      filterUnits="userSpaceOnUse" color-interpolation-filters="sRGB">
      <feFlood flood-opacity="0" result="BackgroundImageFix" />
      <feColorMatrix in="SourceAlpha" type="matrix"
        values="0 0 0 0 0 0 0 0 0 0 0 0 0 0 0 0 0 0 127 0" result="hardAlpha" />
      <feOffset dx="-4" dy="4" />
      <feGaussianBlur stdDeviation="8.45" />
      <feComposite in2="hardAlpha" operator="out" />
      <feColorMatrix type="matrix" values="0 0 0 0 0 0 0 0 0 0 0 0 0 0 0 0 0 0 0.1 0" />
      <feBlend mode="normal" in2="BackgroundImageFix" result="effect1_dropShadow_8256_14224" />
      <feBlend mode="normal" in="SourceGraphic" in2="effect1_dropShadow_8256_14224" result="shape" />
    </filter>
  </defs>
</svg>
