<svg width="85" height="86" viewBox="0 0 85 86" fill="none" xmlns="http://www.w3.org/2000/svg">
    <g filter="url(#filter0_d_8344_9413)">
        <circle cx="46" cy="39" r="25" fill="white" stroke="white" stroke-width="2" />
        <path
            d="M66.4199 38.6921C66.3738 38.2143 66.3393 37.7356 66.2799 37.2593C65.5592 31.5216 62.8951 26.9018 58.2808 23.418C56.8414 22.3311 54.8046 22.638 53.6979 24.0154C52.4696 25.5446 52.8606 27.7148 54.1848 28.7322C55.467 29.7171 56.6112 30.8339 57.4754 32.2063C59.9575 36.1486 60.4023 40.3166 58.6612 44.6423C57.1087 48.4998 54.2781 51.0667 50.3409 52.3787C47.3212 53.3855 44.2853 53.3246 41.3487 52.1099C36.2673 50.0082 33.3374 46.1607 32.8282 40.6964C32.3768 35.8529 34.2615 31.8954 38.0754 28.8747C39.2769 27.9227 39.7856 26.4357 39.3246 25.0947C38.5517 22.8454 35.9676 22.0471 34.0662 23.4809C30.0463 26.5118 27.4922 30.4982 26.451 35.4152C25.5807 39.5254 25.9671 43.5432 27.6241 47.4175C29.0467 50.7446 31.1616 53.5427 34.0774 55.7073C36.3191 57.3713 38.7946 58.551 41.51 59.2164C43.9145 59.8058 46.3464 59.9321 48.7986 59.612C52.2236 59.1652 55.3346 57.9034 58.1175 55.8721C62.3701 52.7682 64.9435 48.5693 66.0289 43.4448C66.215 42.5654 66.2627 41.6565 66.3748 40.7614C66.3875 40.662 66.4047 40.5636 66.4199 40.4647C66.4199 39.8738 66.4199 39.2829 66.4199 38.6921Z"
            fill="#96D100" />
        <path
            d="M49.5761 27.787C49.5761 25.0098 49.5736 22.2326 49.5767 19.4554C49.5782 18.0262 48.9037 16.9937 47.6667 16.3567C46.1478 15.5746 44.3347 16.1214 43.3807 17.5784C42.9978 18.1637 42.8487 18.8037 42.8497 19.4985C42.8553 24.3013 42.8528 29.1046 42.8528 33.9073C42.8528 34.6838 42.8457 35.4608 42.8548 36.2372C42.8802 38.4464 44.9605 40.0247 47.0977 39.4617C48.4421 39.1077 49.5062 37.8114 49.5635 36.4213C49.5919 35.7387 49.5751 35.054 49.5756 34.3704C49.5767 32.1759 49.5756 29.9809 49.5756 27.7865L49.5761 27.787Z"
            fill="#96D100" />
    </g>
    <defs>
        <filter id="filter0_d_8344_9413" x="-0.9" y="0.1" width="85.8" height="85.8"
            filterUnits="userSpaceOnUse" color-interpolation-filters="sRGB">
            <feFlood flood-opacity="0" result="BackgroundImageFix" />
            <feColorMatrix in="SourceAlpha" type="matrix"
                values="0 0 0 0 0 0 0 0 0 0 0 0 0 0 0 0 0 0 127 0" result="hardAlpha" />
            <feOffset dx="-4" dy="4" />
            <feGaussianBlur stdDeviation="8.45" />
            <feComposite in2="hardAlpha" operator="out" />
            <feColorMatrix type="matrix" values="0 0 0 0 0 0 0 0 0 0 0 0 0 0 0 0 0 0 0.1 0" />
            <feBlend mode="normal" in2="BackgroundImageFix" result="effect1_dropShadow_8344_9413" />
            <feBlend mode="normal" in="SourceGraphic" in2="effect1_dropShadow_8344_9413"
                result="shape" />
        </filter>
    </defs>
</svg>
