<svg width="85" height="86" viewBox="0 0 85 86" fill="none" xmlns="http://www.w3.org/2000/svg">
    <g filter="url(#filter0_d_8344_9386)">
        <circle cx="46" cy="39" r="25" fill="white" stroke="white" stroke-width="2" />
        <circle cx="46" cy="39" r="24" fill="#E40422" />
        <path
            d="M40.0819 24.4219L37.6468 29.479L35.2118 24.4219H32.5547V32.0659H34.417V26.5959L36.7975 31.2166H38.4962L40.8767 26.5959V32.0659H42.7429V24.4219H40.0819Z"
            fill="white" />
        <path
            d="M52.0762 24.4219V25.9452H55.4034L55.3956 32.0659H57.2579L57.2657 25.9452H60.5969V24.4219H52.0762Z"
            fill="white" />
        <path
            d="M58.7326 49.9062C58.6858 50.2101 58.5651 50.4633 58.3664 50.6503C58.1793 50.8295 57.93 50.9542 57.6183 51.0282C57.3105 51.0984 56.8625 51.1412 56.3833 51.1412C55.904 51.1412 55.4521 51.0789 55.082 50.9503C54.7235 50.8295 54.4391 50.6152 54.2404 50.3153C54.0378 50.0153 53.9365 49.5789 53.9365 49.0257V48.2425C53.9365 47.6854 54.0378 47.2529 54.2404 46.953C54.4391 46.653 54.7235 46.4426 55.082 46.3179C55.4521 46.1932 55.8885 46.127 56.3833 46.127C56.8781 46.127 57.3105 46.1698 57.6183 46.24C57.93 46.3101 58.1793 46.4387 58.3664 46.6179C58.5612 46.8088 58.6858 47.0581 58.7326 47.362H60.5988C60.5481 46.7309 60.3339 46.1932 59.9598 45.7647C59.617 45.3712 59.1456 45.0828 58.5573 44.9075C57.9845 44.7361 57.2365 44.6465 56.3872 44.6465C55.495 44.6465 54.7196 44.7751 54.0807 45.0283C53.4339 45.2854 52.9352 45.714 52.5885 46.3023C52.2573 46.8672 52.0859 47.6192 52.0742 48.5425V48.6283L52.1755 48.6322L52.0742 48.6361V48.7218C52.0859 49.6451 52.2573 50.3971 52.5885 50.962C52.9314 51.5503 53.4339 51.9789 54.0807 52.236C54.7157 52.4893 55.4911 52.6178 56.3872 52.6178C57.2794 52.6178 57.9884 52.5282 58.5573 52.3568C59.1456 52.1815 59.617 51.8932 59.9598 51.4997C60.3339 51.0711 60.5481 50.5334 60.5988 49.9023L58.7326 49.9062Z"
            fill="white" />
    </g>
    <defs>
        <filter id="filter0_d_8344_9386" x="-0.9" y="0.1" width="85.8" height="85.8"
            filterUnits="userSpaceOnUse" color-interpolation-filters="sRGB">
            <feFlood flood-opacity="0" result="BackgroundImageFix" />
            <feColorMatrix in="SourceAlpha" type="matrix"
                values="0 0 0 0 0 0 0 0 0 0 0 0 0 0 0 0 0 0 127 0" result="hardAlpha" />
            <feOffset dx="-4" dy="4" />
            <feGaussianBlur stdDeviation="8.45" />
            <feComposite in2="hardAlpha" operator="out" />
            <feColorMatrix type="matrix" values="0 0 0 0 0 0 0 0 0 0 0 0 0 0 0 0 0 0 0.1 0" />
            <feBlend mode="normal" in2="BackgroundImageFix" result="effect1_dropShadow_8344_9386" />
            <feBlend mode="normal" in="SourceGraphic" in2="effect1_dropShadow_8344_9386"
                result="shape" />
        </filter>
    </defs>
</svg>
