<svg width="50" height="71" viewBox="0 0 50 71" fill="none" xmlns="http://www.w3.org/2000/svg">
  <path d="M50 26.1818C50 38.1931 32.7498 61.8645 26.9078 69.5368C25.9351 70.8142 24.0649 70.8142 23.0922 69.5368C17.2502 61.8645 0 38.1931 0 26.1818C0 11.722 11.1929 0 25 0C38.8071 0 50 11.722 50 26.1818Z" fill="white"/>
  <path d="M48 26.1818C48 28.7772 47.049 32.2099 45.3721 36.1634C43.7138 40.0734 41.426 44.3099 38.9311 48.4551C33.9428 56.7429 28.2195 64.5128 25.3166 68.3252C25.2195 68.4527 25.1047 68.4949 25 68.4949C24.8953 68.4949 24.7805 68.4527 24.6835 68.3252C21.7805 64.5128 16.0572 56.7429 11.0689 48.4551C8.574 44.3099 6.2862 40.0734 4.6279 36.1634C2.951 32.2099 2 28.7772 2 26.1818C2 12.7385 12.3835 2 25 2C37.6165 2 48 12.7385 48 26.1818Z" stroke="#46A7EC" stroke-width="4"/>
  <path d="M24.9999 30.4617C28.0681 30.4617 30.5555 27.982 30.5555 24.9232C30.5555 21.8644 28.0681 19.3847 24.9999 19.3847C21.9316 19.3847 19.4443 21.8644 19.4443 24.9232C19.4443 27.982 21.9316 30.4617 24.9999 30.4617Z" fill="#46A7EC"/>
</svg>
