<svg width="100" height="130" viewBox="0 0 100 130" fill="none" xmlns="http://www.w3.org/2000/svg">
  <g filter="url(#filter0_d_0_1)">
    <path
      d="M87 48.2845C87 64.9106 62.9783 98.1144 55.9249 107.505C54.9483 108.806 53.0517 108.806 52.0751 107.505C45.0217 98.1144 21 64.9106 21 48.2845C21 28.7974 35.7746 13 54 13C72.2254 13 87 28.7974 87 48.2845Z"
      fill="#FF6F00" />
    <path
      d="M85 48.2845C85 52.0336 83.6259 56.9273 81.2938 62.4537C78.9806 67.9349 75.8074 73.8506 72.3895 79.584C65.5554 91.0483 57.8349 101.632 54.3258 106.304C54.2261 106.437 54.1076 106.481 54 106.481C53.8924 106.481 53.7739 106.437 53.6742 106.304C50.1651 101.632 42.4446 91.0483 35.6104 79.584C32.1926 73.8506 29.0194 67.9349 26.7062 62.4537C24.3741 56.9273 23 52.0336 23 48.2845C23 29.7738 37.0032 15 54 15C70.9968 15 85 29.7738 85 48.2845Z"
      stroke="white" stroke-width="4" />
  </g>
  <ellipse cx="54" cy="46.3548" rx="7.5" ry="7.58064" fill="white" />
  <defs>
    <filter id="filter0_d_0_1" x="0.1" y="0.1" width="99.8" height="129.281"
      filterUnits="userSpaceOnUse" color-interpolation-filters="sRGB">
      <feFlood flood-opacity="0" result="BackgroundImageFix" />
      <feColorMatrix in="SourceAlpha" type="matrix"
        values="0 0 0 0 0 0 0 0 0 0 0 0 0 0 0 0 0 0 127 0" result="hardAlpha" />
      <feOffset dx="-4" dy="4" />
      <feGaussianBlur stdDeviation="8.45" />
      <feComposite in2="hardAlpha" operator="out" />
      <feColorMatrix type="matrix" values="0 0 0 0 0 0 0 0 0 0 0 0 0 0 0 0 0 0 0.1 0" />
      <feBlend mode="normal" in2="BackgroundImageFix" result="effect1_dropShadow_0_1" />
      <feBlend mode="normal" in="SourceGraphic" in2="effect1_dropShadow_0_1" result="shape" />
    </filter>
  </defs>
</svg>
