<svg width="52" height="52" viewBox="0 0 52 52" fill="none" xmlns="http://www.w3.org/2000/svg">
  <circle cx="26" cy="26" r="25" fill="#96D100" stroke="white" stroke-width="2"/>
  <path d="M13 25.9979C13 18.8254 18.811 13.0085 25.9821 13V17.6968C21.4024 17.7032 17.6956 21.4178 17.6956 25.9979C17.6956 30.578 21.4129 34.3032 26.0011 34.3032C30.5892 34.3032 34.3022 30.6204 34.3022 25.9682L39 25.9724C39 33.1789 33.1826 39 26.0011 39C18.8195 39 13 33.1767 13 25.9979Z" fill="white"/>
  <path d="M20.2617 25.9984C20.2617 22.8142 22.8467 20.2324 26.0285 20.2324C29.2102 20.2324 31.7974 22.8142 31.7974 25.9984C31.7974 29.1827 29.2123 31.7644 26.0285 31.7644C22.8446 31.7644 20.2617 29.1848 20.2617 25.9984Z" fill="white"/>
  <path d="M30.0254 18.6919C30.0254 16.8653 31.5056 15.3867 33.3294 15.3867C35.1533 15.3867 36.6356 16.8653 36.6356 18.6919C36.6356 20.5184 35.1554 21.9992 33.3294 21.9992C31.5035 21.9992 30.0254 20.5163 30.0254 18.6919Z" fill="white"/>
</svg>
